<svg aria-hidden="true" style="position: absolute; width: 0; height: 0; overflow: hidden;" version="1.1" xmlns="http://www.w3.org/2000/svg" xmlns:xlink="http://www.w3.org/1999/xlink">
<defs>
<symbol id="icon-email" viewBox="0 0 32 32">
<path d="M15.157 23.443l-5.082-4.745c-0.401-0.375-1.050-0.375-1.451 0l-8.623 8.034v1.094c0 1.020 0.894 1.85 1.986 1.85h27.793c1.092 0 1.986-0.83 1.986-1.85v-1.094l-8.623-8.038c-0.403-0.371-1.054-0.371-1.451 0l-5.082 4.745c-0.401 0.376-1.050 0.376-1.451 0.004zM25.96 16.068l5.080 4.745c0.399 0.375 0.725 0.232 0.725-0.316v-10.21c0-0.55-0.326-0.691-0.725-0.316l-5.080 4.745c-0.403 0.373-0.403 0.977 0 1.352zM1.986 1.882c-1.092 0-1.986 0.834-1.986 1.852v0.333l15.080 14.125c0.399 0.375 1.047 0.375 1.446 0l15.24-14.293v-0.166c0-1.018-0.894-1.852-1.986-1.852h-27.793zM0 10.287v10.21c0 0.548 0.326 0.691 0.725 0.316l5.080-4.745c0.403-0.375 0.403-0.979 0-1.353l-5.080-4.744c-0.399-0.375-0.725-0.233-0.725 0.316z"></path>
</symbol>
<symbol id="icon-facebook" viewBox="0 0 37 32">
<path d="M30.56 0h-24c-2.2 0-4 1.801-4 4v24c0 2.202 1.8 4 4 4h12.139v-11.475h-3.834v-4.998h3.834v-2.504c0-3.861 2.848-6.884 6.485-6.884h3.533v5.643h-3.16c-0.824 0-1.071 0.474-1.071 1.131v2.613h4.232v4.998h-4.232v11.475h6.074c2.202 0 4-1.798 4-4v-24c0-2.199-1.798-4-4-4z"></path>
</symbol>
<symbol id="icon-twitter" viewBox="0 0 37 32">
<path d="M34.56 6.633c-1.179 0.521-2.443 0.875-3.771 1.033 1.355-0.812 2.396-2.1 2.885-3.63-1.266 0.752-2.672 1.298-4.167 1.591-1.198-1.275-2.907-2.071-4.793-2.071-3.625 0-6.565 2.937-6.565 6.564 0 0.514 0.057 1.015 0.171 1.497-5.458-0.276-10.295-2.889-13.533-6.859-0.565 0.969-0.889 2.098-0.889 3.298 0 2.279 1.159 4.288 2.921 5.465-1.076-0.034-2.089-0.329-2.974-0.82 0 0.027 0 0.053 0 0.082 0 3.18 2.263 5.836 5.266 6.437-0.551 0.149-1.131 0.229-1.73 0.229-0.421 0-0.834-0.037-1.234-0.115 0.834 2.61 3.26 4.507 6.132 4.56-2.245 1.76-5.076 2.809-8.151 2.809-0.532 0-1.052-0.032-1.566-0.094 2.905 1.865 6.356 2.949 10.064 2.949 12.075 0 18.679-10.004 18.679-18.677 0-0.286-0.007-0.571-0.021-0.852 1.282-0.921 2.397-2.078 3.277-3.396z"></path>
</symbol>
</defs>
</svg>
